<?xml version="1.0" standalone="no"?>
<!DOCTYPE svg PUBLIC "-//W3C//DTD SVG 20010904//EN"
 "http://www.w3.org/TR/2001/REC-SVG-20010904/DTD/svg10.dtd">
<svg version="1.0" xmlns="http://www.w3.org/2000/svg"
 width="150.000000pt" height="150.000000pt" viewBox="0 0 150.000000 150.000000"
 preserveAspectRatio="xMidYMid meet">

<g transform="translate(0.000000,150.000000) scale(0.100000,-0.100000)"
fill="#000000" stroke="none">
<path d="M1281 1462 l-36 -38 -35 19 c-28 14 -53 17 -118 15 -81 -3 -85 -4
-114 -37 -25 -28 -29 -39 -24 -70 3 -19 1 -52 -6 -72 -14 -48 -3 -101 27 -137
l25 -29 -47 -7 c-75 -10 -75 -10 -52 35 21 39 23 61 19 174 -4 102 -47 140
-160 140 -61 -1 -85 -6 -132 -29 -67 -33 -96 -72 -105 -143 -4 -42 -2 -53 19
-78 14 -17 28 -40 32 -53 4 -12 19 -35 32 -52 l25 -29 -30 -38 c-16 -21 -39
-59 -50 -84 l-21 -46 -104 -7 c-119 -8 -280 -39 -303 -57 -11 -10 -13 -25 -8
-64 8 -69 -4 -100 -41 -100 -28 0 -29 -1 -29 -52 1 -44 6 -57 30 -83 16 -17
40 -33 53 -37 37 -9 23 -37 -21 -41 -46 -4 -49 -28 -9 -73 23 -25 38 -33 79
-36 l51 -5 5 -46 c6 -52 33 -82 74 -82 16 0 37 -13 57 -35 24 -26 54 -42 110
-61 l78 -27 -26 -24 c-32 -29 -33 -49 -5 -64 29 -15 82 -5 119 21 55 39 64 71
70 228 4 125 7 145 23 157 24 17 46 9 58 -22 5 -13 9 -81 9 -150 l0 -125 38
-38 c22 -22 58 -44 90 -54 49 -17 55 -17 77 -2 14 9 25 22 25 30 0 15 -48 66
-62 66 -5 0 -6 15 -3 33 5 27 -25 322 -41 398 -5 24 -2 27 37 33 90 14 203 95
272 196 13 19 19 22 29 12 38 -38 98 12 98 82 0 23 11 65 26 96 31 67 28 100
-17 173 -17 28 -34 68 -37 89 -4 34 -2 38 18 38 56 0 110 61 110 125 0 53 -53
105 -106 105 -30 0 -44 -7 -73 -38z m49 -123 c0 -17 -8 -9 -29 29 l-22 37 26
-28 c14 -15 25 -32 25 -38z m-232 -69 c40 0 42 -1 42 -31 0 -39 14 -65 45 -81
l24 -13 -31 -50 c-42 -69 -78 -105 -105 -105 -28 0 -46 31 -37 65 5 21 12 25
40 25 42 0 45 16 4 25 -60 13 -110 74 -110 134 0 54 6 60 48 45 20 -7 56 -13
80 -14z m-301 -30 c13 0 39 7 58 14 34 15 35 14 41 -10 10 -40 -13 -99 -51
-133 -68 -59 -156 -51 -220 20 -35 39 -36 43 -19 52 35 18 63 49 69 77 l6 27
46 -24 c26 -12 57 -23 70 -23z m551 -108 c17 -37 32 -75 32 -85 0 -10 -11 -39
-25 -65 -17 -33 -25 -63 -25 -99 0 -41 -4 -54 -19 -62 -14 -8 -22 -7 -32 5
-10 12 -9 25 4 68 25 77 22 90 -28 139 -25 25 -45 51 -45 58 0 13 88 109 100
109 3 0 20 -31 38 -68z m-392 -89 l-36 -37 -20 22 c-12 12 -25 22 -30 22 -6 0
-10 4 -10 9 0 9 33 15 104 19 l28 2 -36 -37z m80 -70 c11 -8 31 -12 45 -9 24
4 25 3 23 -35 -4 -97 -178 -191 -208 -114 -10 27 -7 35 14 35 30 0 70 44 70
77 0 16 -7 38 -15 50 -14 20 -13 24 12 54 l28 33 6 -39 c4 -21 15 -45 25 -52z
m172 6 c-10 -21 -18 -47 -18 -58 0 -20 20 -46 41 -53 8 -3 7 -13 -5 -33 l-16
-30 6 30 c6 29 5 29 -47 -21 -73 -70 -111 -88 -185 -89 -50 0 -73 6 -130 35
-50 26 -70 41 -72 58 -3 19 1 22 27 22 16 0 33 5 36 10 12 20 25 9 25 -20 0
-44 31 -70 84 -70 37 0 53 7 95 40 54 43 99 99 132 163 24 47 8 49 -21 2 -43
-69 -42 -31 1 44 l31 54 18 -23 c16 -21 16 -24 -2 -61z m-420 55 c-12 -12 -24
-14 -45 -9 l-28 9 35 6 c54 11 55 11 38 -6z m76 -10 c9 -3 16 -16 15 -28 0
-21 0 -21 -9 2 -6 13 -18 22 -31 22 -14 0 -19 -5 -16 -14 3 -8 -1 -17 -10 -20
-23 -9 -25 -3 -7 22 16 23 30 27 58 16z m-94 -42 c0 -19 -18 -42 -32 -42 -12
0 -9 35 4 48 17 17 28 15 28 -6z m500 3 c20 -24 0 -79 -29 -83 -22 -4 -23 -2
-16 40 11 63 20 73 45 43z m-329 -22 c13 -16 12 -17 -3 -4 -10 7 -18 15 -18
17 0 8 8 3 21 -13z m-31 -38 c-17 -21 -4 -32 20 -17 24 15 26 9 4 -12 -26 -27
-44 -20 -44 17 0 38 9 52 23 38 7 -7 6 -16 -3 -26z m-60 10 c10 -12 9 -20 -3
-39 -19 -29 -50 -38 -74 -21 -16 12 -15 13 8 8 31 -6 59 21 40 40 -9 9 -14 9
-21 -3 -5 -8 -12 -11 -16 -7 -10 10 16 37 36 37 10 0 23 -7 30 -15z m-97 -82
c14 -9 7 -73 -14 -117 -12 -24 -19 -50 -16 -58 3 -8 26 -21 51 -28 42 -11 48
-11 66 5 11 10 20 29 20 42 0 27 0 26 37 12 41 -15 135 -13 179 6 21 8 57 31
81 51 51 42 55 34 12 -24 -81 -111 -279 -177 -374 -126 -16 9 -57 18 -90 19
-33 1 -82 9 -108 18 -33 12 -79 17 -150 16 -127 -1 -179 -17 -62 -19 44 -1
103 -5 130 -9 l50 -7 -85 -43 c-112 -57 -172 -92 -166 -98 2 -2 32 10 67 28
72 36 189 82 189 73 0 -3 -31 -42 -68 -87 -93 -112 -126 -157 -120 -163 3 -2
30 26 61 63 84 102 163 177 172 163 4 -7 -1 -108 -11 -226 -16 -191 -20 -214
-35 -214 -38 0 -155 50 -177 76 -13 14 -44 34 -70 43 -46 16 -47 18 -57 70 -9
43 -18 60 -48 85 -35 29 -37 34 -35 82 2 45 -2 56 -30 88 -36 42 -38 56 -17
117 10 27 14 58 10 81 -6 36 -6 37 32 47 42 12 195 39 258 45 47 4 307 -4 318
-11z m77 -144 c0 -34 -12 -42 -50 -34 -34 7 -37 22 -15 66 15 28 16 29 40 13
17 -11 25 -26 25 -45z m-162 -101 c8 -8 15 -8 25 0 15 13 73 6 83 -10 16 -25
-63 -57 -106 -43 -23 7 -44 41 -35 55 8 13 18 13 33 -2z"/>
</g>
</svg>
